# xmcd
# 
# Track frame offsets:
#     150
#     12811
#     27031
#     35079
#     44862
#     53891
#     66343
#     88586
#     97866
#     110939
#     122947
#     133240
#     145883
#     156889
#     167208
#     186506
#     197831
# 
# Disc length: 2818
# 
# Revision: 1
# Processed by: cddbd v1.5.2PL0 Copyright (c) Steve Scherf et al.
# Submitted via: BonkEnc v1.0.8
# 
DISCID=030b0011
DTITLE=Robert Normann - The Definitive Collection-vol4
DYEAR=2005
DGENRE=Jazz
TTITLE0=The Harry Lime Theme 1
TTITLE1=Junkers Samba
TTITLE2=Sakkijarven Polka 1
TTITLE3=Gammel Polka
TTITLE4=Dinora 1
TTITLE5=Handkerchief Fox
TTITLE6=Kjærlighetssmil
TTITLE7=Dialog
TTITLE8=Elvira
TTITLE9=Mariposita
TTITLE10=My Prayer
TTITLE11=When The Lilac`s Bloom Again
TTITLE12=Gitarpolka
TTITLE13=Dinora 2
TTITLE14=Julepotpurri
TTITLE15=Sakkijarven Polka 2
TTITLE16=Yhe Harry Lime Theme 2
EXTD=Good
EXTT0=
EXTT1=Topp
EXTT2=
EXTT3=
EXTT4=
EXTT5=
EXTT6=
EXTT7=
EXTT8=
EXTT9=
EXTT10=
EXTT11=
EXTT12=
EXTT13=
EXTT14=
EXTT15=
EXTT16=
PLAYORDER=
